<?xml version="1.0" encoding="iso-8859-1"?>
<!-- Generator: Adobe Illustrator 16.0.0, SVG Export Plug-In . SVG Version: 6.00 Build 0)  -->
<!DOCTYPE svg PUBLIC "-//W3C//DTD SVG 1.1//EN" "http://www.w3.org/Graphics/SVG/1.1/DTD/svg11.dtd">
<svg version="1.1" id="Capa_1" xmlns="http://www.w3.org/2000/svg" xmlns:xlink="http://www.w3.org/1999/xlink" x="0px" y="0px"
	 width="380.012px" height="380.013px" viewBox="0 0 380.012 380.013" style="enable-background:new 0 0 380.012 380.013;"
	 xml:space="preserve">
<g>
	<g>
		<path d="M154.281,122.173c19.884,5.587,37.448,12.684,54.431,19.546c48.695,19.686,90.747,36.672,163.421,6.248
			c0.975-0.405,1.931-0.804,2.862-1.166c1.37-1.02,3.105-2.095,5.012-3.236v-56.44H0v45.449
			C20.271,123.275,79.85,101.284,154.281,122.173z"/>
		<path d="M380.006,158.58c-0.677,0.213-1.298,0.338-1.87,0.393c-0.365,0.149-0.755,0.313-1.181,0.493
			c-30.337,12.702-55.917,17.546-78.758,17.546c-35.451,0-64.289-11.667-94.162-23.738c-16.669-6.741-33.905-13.704-53.128-19.099
			c-78.995-22.177-141.484,7.42-150.901,12.267v146.447h380.006V158.58H380.006z M43.044,231.528l-29.051-29.052l29.051-29.051
			l29.048,29.051L43.044,231.528z M227.929,213.291H90.619v-21.629h137.311V213.291z M366.342,279.639h-82.746v-10.912h82.746
			V279.639z M366.342,257.814h-82.746v-10.911h82.746V257.814z M366.342,235.991h-82.746V225.08h82.746V235.991z"/>
	</g>
</g>
<g>
</g>
<g>
</g>
<g>
</g>
<g>
</g>
<g>
</g>
<g>
</g>
<g>
</g>
<g>
</g>
<g>
</g>
<g>
</g>
<g>
</g>
<g>
</g>
<g>
</g>
<g>
</g>
<g>
</g>
</svg>
